<svg viewBox="0 0 466.357 504.312" xmlns="http://www.w3.org/2000/svg" xmlns:xlink="http://www.w3.org/1999/xlink" width="466.356812" height="504.312408" fill="none" customFrame="#000000">
	<g id="Group">
		<g id="Group">
			<g id="Group">
				<g id="Group">
					<path id="Vector" d="M250.866 100.777C345.974 100.777 423.127 171.412 423.127 258.486L423.127 416.194L250.866 416.194C155.758 416.194 78.6052 345.559 78.6052 258.486L78.6052 100.777L250.866 100.777Z" fill="rgb(99,166,15)" fill-rule="nonzero" />
					<g id="Group">
						<path id="Vector" d="M398.438 177.32C384.13 192.474 375.432 212.252 375.432 233.828C375.432 265.935 394.51 293.932 422.846 309.086L422.846 258.486C422.846 228.947 414.149 201.207 398.438 177.32Z" opacity="0.300000012" fill="rgb(99,166,15)" fill-rule="nonzero" />
						<path id="Vector" d="M330.824 119.014C303.891 133.141 285.935 159.596 285.935 190.162C285.935 235.368 326.055 272.099 375.432 272.099C392.827 272.099 409.099 267.475 422.846 259.513L422.846 258.485C422.846 197.868 385.532 145.213 330.824 119.014Z" fill="rgb(99,166,15)" fill-rule="nonzero" />
						<path id="Vector" d="M195.597 131.335C151.269 131.335 110.588 145.462 78.6052 169.35L78.6052 258.735C78.6052 345.809 155.758 416.444 250.866 416.444L333.349 416.444C363.368 386.135 381.604 346.066 381.604 301.887C381.604 207.621 298.28 131.335 195.597 131.335Z" opacity="0.5" fill="rgb(239,246,231)" fill-rule="nonzero" />
					</g>
				</g>
				<g id="Group">
					<path id="Vector" d="M422.846 415.936L250.866 416.193C155.758 416.193 78.6052 345.558 78.6052 258.485L78.6052 101.033L422.846 415.936Z" fill="rgb(99,166,15)" fill-rule="nonzero" />
					<g id="Group">
						<path id="Vector" d="M105.258 157.285C105.258 276.979 211.308 373.813 341.766 373.813C352.988 373.813 363.93 373.042 374.591 371.758L107.503 127.49C106.1 137.25 105.258 147.267 105.258 157.285Z" opacity="0.300000012" fill="rgb(99,166,15)" fill-rule="nonzero" />
						<path id="Vector" d="M422.846 416.193L80.0084 102.318C120.408 157.541 166.98 213.536 214.394 259.769C251.427 295.729 358.319 376.124 422.846 416.193Z" opacity="0.300000012" fill="rgb(99,166,15)" fill-rule="nonzero" />
						<path id="Vector" d="M191.108 203.775L78.6052 101.033L78.6052 258.742C78.6052 328.349 127.983 387.426 196.158 408.231C166.98 381.261 149.025 344.274 149.025 303.691C149.025 265.163 165.016 230.231 191.108 203.775Z" opacity="0.300000012" fill="rgb(99,166,15)" fill-rule="nonzero" />
						<path id="Vector" d="M344.291 344.275C315.113 376.896 270.786 397.958 221.127 397.958C188.022 397.958 157.161 388.711 131.63 372.786C162.491 399.756 204.294 416.451 250.586 416.451L422.846 416.451L422.846 416.194L344.291 344.275Z" opacity="0.300000012" fill="rgb(99,166,15)" fill-rule="nonzero" />
						<path id="Vector" d="M88.7052 195.299C88.7052 169.87 93.4746 145.212 102.452 122.609L78.6052 101.033L78.6052 258.742C78.6052 345.815 155.758 416.45 250.866 416.45L423.127 416.45L423.127 416.193L406.013 400.525C381.043 408.745 354.391 413.111 326.335 413.111C195.036 412.854 88.7052 315.507 88.7052 195.299Z" opacity="0.300000012" fill="rgb(239,246,231)" fill-rule="nonzero" />
					</g>
				</g>
			</g>
		</g>
		<g id="Group">
			<g id="Group">
				<path id="Vector" d="M420.041 446.759C432.105 443.677 444.73 450.355 447.816 461.4C451.183 472.445 443.889 484.003 431.544 486.829C419.48 489.911 406.855 483.233 403.769 472.188C400.683 461.143 407.978 449.842 420.041 446.759ZM415.553 431.091C393.95 436.485 381.044 456.52 386.936 476.298C392.547 496.075 414.711 507.891 436.314 502.497C457.916 497.103 470.822 476.811 464.93 457.29C459.319 437.513 437.155 425.954 415.553 431.091Z" fill="rgb(99,166,15)" fill-rule="nonzero" />
				<path id="Vector" d="M444.166 479.376C441.08 482.972 436.872 485.797 431.822 487.081C419.758 490.164 407.133 483.485 404.047 472.441C401.802 464.221 404.888 456.002 411.622 451.122C408.255 446.755 405.45 441.875 402.644 436.995C389.177 445.728 382.444 461.396 386.933 476.807C392.544 496.585 414.708 508.4 436.311 503.006C446.41 500.438 454.547 494.787 459.877 487.338C454.547 484.77 449.216 482.201 444.166 479.376Z" opacity="0.5" fill="rgb(99,166,15)" fill-rule="nonzero" />
			</g>
			<g id="Group">
				<path id="Vector" d="M86.7384 446.76C98.8023 443.934 111.427 450.612 114.513 461.657C117.599 472.702 110.305 484.26 98.2412 487.086C86.1773 489.911 73.5524 483.233 70.4663 472.188C67.3802 461.143 74.6746 449.585 86.7384 446.76ZM82.2496 431.091C60.6468 436.229 47.7413 456.52 53.3524 476.298C58.9635 496.075 81.1273 507.891 102.73 502.754C124.333 497.617 137.238 477.325 131.908 457.547C126.016 437.77 103.852 425.954 82.2496 431.091Z" fill="rgb(99,166,15)" fill-rule="nonzero" />
				<path id="Vector" d="M110.589 479.633C107.503 483.229 103.295 486.055 98.2449 487.082C86.1811 489.907 73.5561 483.229 70.47 472.184C68.2256 463.965 71.5922 455.746 78.045 450.866C74.6783 446.499 71.8728 441.619 69.3478 436.739C55.8812 445.215 48.8673 460.883 53.3562 476.294C58.9673 496.072 81.1311 507.887 102.734 502.75C112.834 500.438 121.25 494.531 126.3 487.082C120.689 485.027 115.639 482.459 110.589 479.633Z" opacity="0.5" fill="rgb(99,166,15)" fill-rule="nonzero" />
			</g>
		</g>
		<g id="Group">
			<path id="Vector" d="M89.5473 89.9887C84.2167 89.9887 79.7278 85.879 79.7278 80.9988C79.7278 59.9367 73.2751 44.0118 60.9307 33.4808C41.0113 16.2716 10.9919 18.0695 10.7114 18.0695C5.38082 18.5832 0.611388 14.7304 0.0502783 9.8502C-0.510831 4.96997 3.69749 0.603447 9.02803 0.0897385C10.7114 0.0897385 47.7446 -2.4788 74.1168 19.8675C90.95 33.9945 99.3667 54.5428 99.3667 80.7419C99.3667 85.879 95.1584 89.9887 89.5473 89.9887Z" fill="rgb(99,166,15)" fill-rule="nonzero" />
		</g>
	</g>
</svg>
