<svg class="img-fluid" id="outputsvg" xmlns="http://www.w3.org/2000/svg" width="109" height="120" viewBox="0 0 1090 1200">
  <g id="l27NasbBgNg7hD7nbDSPtP6" fill="rgb(99,167,15)" style="transform: none;">
    <g style="transform: none;">
      <path id="pBjRCNRBS" d="M164 1165 c-12 -8 -27 -27 -33 -44 -10 -24 -10 -34 3 -60 20 -37 44 -51 89 -51 76 0 115 93 62 145 -28 29 -88 34 -121 10z m94 -37 c7 -7 12 -21 12 -33 0 -28 -19 -45 -50 -45 -14 0 -31 5 -38 12 -15 15 -15 51 0 66 15 15 61 15 76 0z"></path>
      <path id="pqa51g4UV" d="M925 1148 c-71 -84 48 -184 134 -112 64 53 23 144 -64 144 -36 0 -48 -5 -70 -32z m113 -20 c7 -7 12 -21 12 -33 0 -28 -19 -45 -49 -45 -37 0 -53 14 -53 45 0 15 6 31 13 36 20 13 63 11 77 -3z"></path>
      <path id="pbbzmAv2n" d="M525 955 c-124 -41 -251 -152 -305 -267 l-30 -63 0 -192 0 -193 233 0 c251 0 291 6 380 55 57 32 118 98 154 167 27 53 28 54 31 284 l4 231 -204 -1 c-175 -1 -211 -4 -263 -21z m330 -273 c-12 -115 -102 -235 -219 -292 -76 -37 -179 -58 -226 -44 l-32 9 233 216 c225 207 234 214 242 190 4 -14 5 -50 2 -79z"></path>
      <path id="pOuwzsRjr" d="M196 198 c-27 -106 -51 -133 -138 -152 -57 -14 -73 -39 -26 -44 65 -8 152 38 182 97 13 24 20 66 17 99 -1 16 -31 16 -35 0z"></path>
    </g>
  </g>
  <g id="l1AoCCJecrWVYXwVuNSl49h" fill="rgb(169,206,123)" style="transform: none;">
    <g style="transform: none;">
      <path id="pdB4be81G" d="M644 658 c-115 -106 -241 -221 -278 -255 l-68 -63 28 -11 c16 -6 61 -14 99 -16 182 -13 347 76 427 230 31 58 33 68 33 169 0 173 7 175 -241 -54z"></path>
    </g>
  </g>
  <g id="l3bWWCrjO4LQGbnveygFfQK" fill="rgb(141,191,80)" style="transform: none;">
    <g style="transform: none;">
      <path id="pJMEZpsCh" d="M529 970 c-124 -9 -260 -104 -312 -218 -20 -43 -22 -66 -25 -275 -3 -224 -3 -228 16 -218 23 12 37 41 20 41 -6 0 -8 3 -5 7 4 3 2 13 -5 20 -6 8 -14 52 -16 97 -7 134 37 254 132 354 67 72 154 128 238 153 37 12 68 26 68 32 0 13 -16 14 -111 7z"></path>
      <path id="p13jmgcPEs" d="M874 971 c-10 -11 -2 -20 29 -30 28 -10 34 -9 47 7 9 10 22 21 30 24 8 3 -11 4 -43 4 -32 -1 -60 -3 -63 -5z"></path>
    </g>
  </g>
</svg>
