<svg version="1.0" xmlns="http://www.w3.org/2000/svg" width="110px" height="119px" viewBox="0 0 110 119" preserveAspectRatio="xMidYMid meet">
 <g fill="none">
  <path d="M 0 59.5 l 0 -59.4 55 -0.1 55 0 0 59.5 0 59.5 -55 0 -55 0 0 -59.5 z  M96.7 61.3 C 96.7 41 80.3 24.5 59.9 24.5 39.6 24.5 23.1 41 23.1 61.3 23.1 81.7 39.6 98.2 59.9 98.2 80.3 98.2 96.7 81.7 96.7 61.3 Z M95.8 74.8 "/>
 </g>
 <g fill="#fefefc">
  <path d="M30.6 109.5 C 30.6 114.4 26.6 118.4 21.7 118.4 16.7 118.4 12.8 114.4 12.8 109.5 12.8 104.5 16.7 100.5 21.7 100.5 26.6 100.5 30.6 104.5 30.6 109.5 Z M14.9 115.1  M26.6 109.4 C 26.6 106.7 24.4 104.5 21.7 104.5 19 104.5 16.8 106.7 16.8 109.4 16.8 112 19 114.2 21.7 114.2 24.4 114.2 26.6 112 26.6 109.4 Z M26.2 111.4 "/>
  <path d="M108.7 109.4 C 108.7 114.4 104.7 118.3 99.8 118.3 94.9 118.3 90.9 114.4 90.9 109.4 90.9 104.5 94.9 100.5 99.8 100.5 104.7 100.5 108.7 104.5 108.7 109.4 Z M93.4 115.6  M104.9 109.5 C 104.9 106.8 102.7 104.6 100 104.6 97.3 104.6 95.2 106.8 95.2 109.5 95.2 112.2 97.3 114.4 100 114.4 102.7 114.4 104.9 112.2 104.9 109.5 Z M103.8 112.8 "/>
  <path d="M 51 96.9 c -12.7 -2.1 -25.6 -12.2 -30 -23.4 -2.1 -5.5 -2.4 -8 -2.8 -27.8 l -0.4 -21.8 26.3 0.3 26.4 0.3 6.6 3.2 c 7.7 3.8 15.9 12 19.2 19 2 4.4 2.2 6.6 2.5 28.1 l 0.3 23.2 -21.3 -0.1 c -11.7 -0.1 -23.8 -0.5 -26.8 -1 z "/>
  <path d="M 18.6 16.8 c -1.2 -7.6 -5.2 -11.1 -13.9 -12.6 -4.8 -0.9 -5.8 -3.5 -1.5 -4 7.4 -0.9 16.9 5 18.9 11.7 1.4 4.7 0.9 8.5 -1.2 8.9 -1.2 0.2 -1.8 -0.8 -2.3 -4 z "/>
 </g>
</svg>